<svg xmlns="http://www.w3.org/2000/svg" xmlns:xlink="http://www.w3.org/1999/xlink" version="1.1" width="1000" height="1000" viewBox="0 0 1000 1000" xml:space="preserve">
<desc>Created with Fabric.js 3.5.0</desc>
<defs>
</defs>
<rect x="0" y="0" width="100%" height="100%" fill="#ffffff"/>
<g transform="matrix(17.2094 0 0 17.2094 499.9991 620.2792)" id="105473">
<g style="" vector-effect="non-scaling-stroke">
		<g transform="matrix(1 0 0 1 11.8452 1.5004)" id="Vector" clip-path="url(#CLIPPATH_3)">
<clipPath id="CLIPPATH_3">
	<rect transform="matrix(1 0 0 1 -11.6212 -1.594)" id="clip0_0_162" x="-34.27585" y="-20.7636" rx="0" ry="0" width="68.5517" height="41.5272"/>
</clipPath>
<path style="stroke: none; stroke-width: 1; stroke-dasharray: none; stroke-linecap: butt; stroke-dashoffset: 0; stroke-linejoin: miter; stroke-miterlimit: 4; is-custom-font: none; font-file-url: none; fill: rgb(51,51,51); fill-rule: nonzero; opacity: 1;" transform=" translate(-46.3452, -22.5004)" d="M 44.6348 21.1039 L 45.9133 24.0542 C 46.1496 24.598 46.8002 24.8552 47.3678 24.6293 C 47.9364 24.4057 48.206 23.783 47.9704 23.2389 L 46.6922 20.2896 L 44.6348 21.1039 Z" stroke-linecap="round"/>
</g>
		<g transform="matrix(1 0 0 1 12.0162 1.6633)" id="Vector_2" clip-path="url(#CLIPPATH_4)">
<clipPath id="CLIPPATH_4">
	<rect transform="matrix(1 0 0 1 -11.7921 -1.7569)" id="clip0_0_162" x="-34.27585" y="-20.7636" rx="0" ry="0" width="68.5517" height="41.5272"/>
</clipPath>
<path style="stroke: none; stroke-width: 1; stroke-dasharray: none; stroke-linecap: butt; stroke-dashoffset: 0; stroke-linejoin: miter; stroke-miterlimit: 4; is-custom-font: none; font-file-url: none; fill: rgb(51,51,51); fill-rule: nonzero; opacity: 1;" transform=" translate(-46.5162, -22.6634)" d="M 45.4877 23.0706 L 47.5447 22.2561 L 45.4877 23.0706 Z" stroke-linecap="round"/>
</g>
		<g transform="matrix(1 0 0 1 8.8919 -5.5472)" id="Vector_3" clip-path="url(#CLIPPATH_5)">
<clipPath id="CLIPPATH_5">
	<rect transform="matrix(1 0 0 1 -8.6678 5.4536)" id="clip0_0_162" x="-34.27585" y="-20.7636" rx="0" ry="0" width="68.5517" height="41.5272"/>
</clipPath>
<path style="stroke: none; stroke-width: 1; stroke-dasharray: none; stroke-linecap: butt; stroke-dashoffset: 0; stroke-linejoin: miter; stroke-miterlimit: 4; is-custom-font: none; font-file-url: none; fill: rgb(51,51,51); fill-rule: nonzero; opacity: 1;" transform=" translate(-43.3918, -15.4529)" d="M 41.9372 14.877 L 44.8465 16.0287 L 41.9372 14.877 Z" stroke-linecap="round"/>
</g>
		<g transform="matrix(1 0 0 1 6.0521 -12.103)" id="Vector_4" clip-path="url(#CLIPPATH_6)">
<clipPath id="CLIPPATH_6">
	<rect transform="matrix(1 0 0 1 -5.828 12.0095)" id="clip0_0_162" x="-34.27585" y="-20.7636" rx="0" ry="0" width="68.5517" height="41.5272"/>
</clipPath>
<path style="stroke: none; stroke-width: 1; stroke-dasharray: none; stroke-linecap: butt; stroke-dashoffset: 0; stroke-linejoin: miter; stroke-miterlimit: 4; is-custom-font: none; font-file-url: none; fill: rgb(51,51,51); fill-rule: nonzero; opacity: 1;" transform=" translate(-40.552, -8.8969)" d="M 43.5203 8.89645 C 43.5203 10.4642 42.1915 11.7349 40.5531 11.7349 C 38.9129 11.7349 37.5838 10.4642 37.5838 8.89645 C 37.5838 7.32897 38.9129 6.05896 40.5531 6.05896 C 42.1912 6.05896 43.5203 7.32897 43.5203 8.89645 Z" stroke-linecap="round"/>
</g>
		<g transform="matrix(1 0 0 1 6.0514 -12.1032)" id="Vector_5" clip-path="url(#CLIPPATH_7)">
<clipPath id="CLIPPATH_7">
	<rect transform="matrix(1 0 0 1 -5.8274 12.0096)" id="clip0_0_162" x="-34.27585" y="-20.7636" rx="0" ry="0" width="68.5517" height="41.5272"/>
</clipPath>
<path style="stroke: none; stroke-width: 1; stroke-dasharray: none; stroke-linecap: butt; stroke-dashoffset: 0; stroke-linejoin: miter; stroke-miterlimit: 4; is-custom-font: none; font-file-url: none; fill: rgb(51,51,51); fill-rule: nonzero; opacity: 1;" transform=" translate(-40.5515, -8.8968)" d="M 42.0359 8.89649 C 42.0359 9.68086 41.3719 10.3163 40.5527 10.3163 C 39.7325 10.3163 39.067 9.68086 39.067 8.89649 C 39.067 8.11278 39.7325 7.4773 40.5527 7.4773 C 41.3719 7.47694 42.0359 8.11278 42.0359 8.89649 Z" stroke-linecap="round"/>
</g>
		<g transform="matrix(1 0 0 1 2.4596 -3.157)" id="Vector_6" clip-path="url(#CLIPPATH_8)">
<clipPath id="CLIPPATH_8">
	<rect transform="matrix(1 0 0 1 -2.2356 3.0634)" id="clip0_0_162" x="-34.27585" y="-20.7636" rx="0" ry="0" width="68.5517" height="41.5272"/>
</clipPath>
<path style="stroke: none; stroke-width: 1; stroke-dasharray: none; stroke-linecap: butt; stroke-dashoffset: 0; stroke-linejoin: miter; stroke-miterlimit: 4; is-custom-font: none; font-file-url: none; fill: rgb(51,51,51); fill-rule: nonzero; opacity: 1;" transform=" translate(-36.9596, -17.843)" d="M 38.4707 10.9196 L 34.41 20.2899 L 33.3921 24.4949 L 34.0777 24.7664 L 36.4677 21.1043 L 37.0363 19.7937 C 36.5926 18.769 37.1009 17.5942 38.1724 17.1706 L 40.5271 11.734 C 39.7262 11.7276 39.0016 11.4183 38.4707 10.9196 Z" stroke-linecap="round"/>
</g>
		<g transform="matrix(1 0 0 1 8.8504 -5.6445)" id="Vector_7" clip-path="url(#CLIPPATH_9)">
<clipPath id="CLIPPATH_9">
	<rect transform="matrix(1 0 0 1 -8.6262 5.5509)" id="clip0_0_162" x="-34.27585" y="-20.7636" rx="0" ry="0" width="68.5517" height="41.5272"/>
</clipPath>
<path style="stroke: none; stroke-width: 1; stroke-dasharray: none; stroke-linecap: butt; stroke-dashoffset: 0; stroke-linejoin: miter; stroke-miterlimit: 4; is-custom-font: none; font-file-url: none; fill: rgb(51,51,51); fill-rule: nonzero; opacity: 1;" transform=" translate(-43.3503, -15.3555)" d="M 42.6331 10.9189 C 42.1018 11.4183 41.3766 11.7276 40.5757 11.7337 L 44.0686 19.7921 L 46.125 18.9781 L 42.6331 10.9189 Z" stroke-linecap="round"/>
</g>
		<g transform="matrix(1 0 0 1 6.052 -18.4895)" id="Vector_8" clip-path="url(#CLIPPATH_10)">
<clipPath id="CLIPPATH_10">
	<rect transform="matrix(1 0 0 1 -5.8279 18.396)" id="clip0_0_162" x="-34.27585" y="-20.7636" rx="0" ry="0" width="68.5517" height="41.5272"/>
</clipPath>
<path style="stroke: none; stroke-width: 1; stroke-dasharray: none; stroke-linecap: butt; stroke-dashoffset: 0; stroke-linejoin: miter; stroke-miterlimit: 4; is-custom-font: none; font-file-url: none; fill: rgb(51,51,51); fill-rule: nonzero; opacity: 1;" transform=" translate(-40.552, -2.5105)" d="M 41.6653 4.63947 V 1.44605 C 41.6649 0.85753 41.165 0.38147 40.5521 0.38147 C 39.9372 0.38147 39.439 0.856886 39.4386 1.44605 L 39.439 4.63947 H 41.6653 Z" stroke-linecap="round"/>
</g>
		<g transform="matrix(1 0 0 1 6.0519 -15.6252)" id="Vector_9" clip-path="url(#CLIPPATH_11)">
<clipPath id="CLIPPATH_11">
	<rect transform="matrix(1 0 0 1 -5.8279 15.5316)" id="clip0_0_162" x="-34.27585" y="-20.7636" rx="0" ry="0" width="68.5517" height="41.5272"/>
</clipPath>
<path style="stroke: none; stroke-width: 1; stroke-dasharray: none; stroke-linecap: butt; stroke-dashoffset: 0; stroke-linejoin: miter; stroke-miterlimit: 4; is-custom-font: none; font-file-url: none; fill: rgb(51,51,51); fill-rule: nonzero; opacity: 1;" transform=" translate(-40.5519, -5.3748)" d="M 40.5527 6.05899 C 40.7424 6.05899 40.9284 6.07721 41.1083 6.10982 V 4.63977 H 39.9955 V 6.10982 C 40.1762 6.07689 40.3611 6.05899 40.5527 6.05899 Z" stroke-linecap="round"/>
</g>
		<g transform="matrix(1 0 0 1 -10.5149 -7.8392)" id="Vector_10" clip-path="url(#CLIPPATH_12)">
<clipPath id="CLIPPATH_12">
	<rect transform="matrix(1 0 0 1 10.7389 7.7456)" id="clip0_0_162" x="-34.27585" y="-20.7636" rx="0" ry="0" width="68.5517" height="41.5272"/>
</clipPath>
<path style="stroke: none; stroke-width: 1; stroke-dasharray: none; stroke-linecap: butt; stroke-dashoffset: 0; stroke-linejoin: miter; stroke-miterlimit: 4; is-custom-font: none; font-file-url: none; fill: rgb(51,51,51); fill-rule: nonzero; opacity: 1;" transform=" translate(-23.9852, -13.1608)" d="M 25.0957 25.9407 H 21.3929 V 0.380859 H 25.0963 C 25.9146 0.380859 26.5774 1.01699 26.5774 1.80136 V 24.5214 H 26.5771 C 26.5768 25.3058 25.9139 25.9407 25.0957 25.9407 Z" stroke-linecap="round"/>
</g>
		<g transform="matrix(1 0 0 1 -9.5889 -19.0214)" id="Vector_11" clip-path="url(#CLIPPATH_13)">
<clipPath id="CLIPPATH_13">
	<rect transform="matrix(1 0 0 1 9.8129 18.9278)" id="clip0_0_162" x="-34.27585" y="-20.7636" rx="0" ry="0" width="68.5517" height="41.5272"/>
</clipPath>
<path style="stroke: none; stroke-width: 1; stroke-dasharray: none; stroke-linecap: butt; stroke-dashoffset: 0; stroke-linejoin: miter; stroke-miterlimit: 4; is-custom-font: none; font-file-url: none; fill: rgb(51,51,51); fill-rule: nonzero; opacity: 1;" transform=" translate(-24.9111, -1.9787)" d="M 24.911 2.51126 C 25.2179 2.51126 25.4667 2.27281 25.4667 1.97865 C 25.4667 1.6845 25.2179 1.44604 24.911 1.44604 C 24.6042 1.44604 24.3555 1.6845 24.3555 1.97865 C 24.3555 2.27281 24.6042 2.51126 24.911 2.51126 Z" stroke-linecap="round"/>
</g>
		<g transform="matrix(1 0 0 1 -4.2194 -5.2643)" id="Vector_12" clip-path="url(#CLIPPATH_14)">
<clipPath id="CLIPPATH_14">
	<rect transform="matrix(1 0 0 1 4.4435 5.1707)" id="clip0_0_162" x="-34.27585" y="-20.7636" rx="0" ry="0" width="68.5517" height="41.5272"/>
</clipPath>
<path style="stroke: none; stroke-width: 1; stroke-dasharray: none; stroke-linecap: butt; stroke-dashoffset: 0; stroke-linejoin: miter; stroke-miterlimit: 4; is-custom-font: none; font-file-url: none; fill: rgb(51,51,51); fill-rule: nonzero; opacity: 1;" transform=" translate(-30.2805, -15.7357)" d="M 29.1694 15.4696 C 29.1694 15.7626 29.4184 16.0019 29.725 16.0019 C 30.032 16.0019 30.2806 15.7626 30.2806 15.4696 C 30.2806 15.7626 30.5299 16.0019 30.8362 16.0019 C 31.1431 16.0019 31.3917 15.7626 31.3917 15.4696 C 31.3917 15.7626 31.1431 16.0019 30.8362 16.0019 C 30.5299 16.0019 30.2806 15.7626 30.2806 15.4696 C 30.2806 15.7626 30.032 16.0019 29.725 16.0019 C 29.4184 16.0019 29.1694 15.7626 29.1694 15.4696 Z" stroke-linecap="round"/>
</g>
		<g transform="matrix(1 0 0 1 -4.2196 -10.6788)" id="Vector_13" clip-path="url(#CLIPPATH_15)">
<clipPath id="CLIPPATH_15">
	<rect transform="matrix(1 0 0 1 4.4436 10.5852)" id="clip0_0_162" x="-34.27585" y="-20.7636" rx="0" ry="0" width="68.5517" height="41.5272"/>
</clipPath>
<path style="stroke: none; stroke-width: 1; stroke-dasharray: none; stroke-linecap: butt; stroke-dashoffset: 0; stroke-linejoin: miter; stroke-miterlimit: 4; is-custom-font: none; font-file-url: none; fill: rgb(51,51,51); fill-rule: nonzero; opacity: 1;" transform=" translate(-30.2804, -10.3212)" d="M 29.9103 0.380859 C 29.5017 0.380859 29.1694 0.699402 29.1694 1.09175 V 1.09143 V 16.0016 L 30.2802 20.2615 L 31.3914 16.0016 V 1.09111 V 1.09143 C 31.3914 0.699722 31.0595 0.381179 30.6505 0.381179 L 29.9103 0.380859 Z" stroke-linecap="round"/>
</g>
</g>
</g>
</svg>